M48
;DRILL file {KiCad 4.0.7} date Mon Nov 20 20:18:15 2017
;FORMAT={3:3/ absolute / metric / keep zeros}
FMAT,2
METRIC,TZ
T1C0.500
T2C0.800
T3C0.900
T4C1.000
T5C1.200
T6C1.300
T7C1.400
T8C2.200
%
G90
G05
M71
T1
X009000Y071000
X009000Y062000
X009000Y053500
X009500Y093000
X009500Y090000
X011000Y041500
X011000Y036000
X012500Y075000
X014000Y090000
X017000Y090000
X017000Y085000
X023000Y085000
X024500Y075000
X024500Y057000
X024500Y053500
X026000Y072500
X026000Y064000
X026500Y055000
X026500Y046000
X028000Y074500
X028000Y065500
X028000Y057000
X028000Y047500
X028500Y052000
X029500Y076000
X029500Y067000
X045000Y064000
X045000Y059000
X046500Y074000
X048000Y075500
X052500Y052000
X054000Y058500
X054000Y054500
X054500Y047500
X061500Y064000
X065500Y075500
X066000Y064000
X066000Y062000
X067000Y074000
X070000Y062000
X073000Y076000
X077000Y076000
T2
X006700Y085500
X007200Y087000
X011800Y087000
X012300Y085500
X024420Y097620
X024420Y082380
X026960Y097620
X026960Y082380
X029500Y097620
X029500Y082380
X032040Y097620
X032040Y082380
X034580Y097620
X034580Y082380
X037420Y097620
X037420Y082380
X039960Y097620
X039960Y082380
X042500Y097620
X042500Y082380
X045040Y097620
X045040Y082380
X047580Y097620
X047580Y082380
T3
X013500Y043500
X016000Y043500
X017460Y018500
X018500Y043500
X020000Y018500
X036500Y059500
X039000Y059500
X041500Y059500
X059500Y043500
X062000Y043500
X064500Y043500
T4
X029000Y019500
X029000Y003000
X031500Y019500
X031500Y003000
X034000Y019500
X034000Y003000
T5
X005100Y086000
X007000Y032980
X007000Y029880
X007000Y021580
X007000Y016480
X007000Y013380
X007000Y005080
X013900Y086000
X071000Y032980
X071000Y029880
X071000Y021580
X071000Y016480
X071000Y013380
X071000Y005080
T6
X054276Y092875
X054276Y087125
X057149Y097851
X057149Y082149
X062125Y100724
X062125Y079276
X062275Y092725
X062275Y087275
X067725Y092725
X067725Y087275
X067875Y100724
X067875Y079276
X072851Y097851
X072851Y082149
X075724Y092875
X075724Y087125
T7
X004800Y098000
X009500Y098000
X014200Y098000
T8
X011200Y051000
X020800Y051000
X026600Y026500
X026600Y010000
X034200Y067000
X036400Y026500
X036400Y010000
X043800Y067000
X057200Y051000
X066800Y051000
T0
M30
