G04 #@! TF.FileFunction,Soldermask,Bot*
%FSLAX46Y46*%
G04 Gerber Fmt 4.6, Leading zero omitted, Abs format (unit mm)*
G04 Created by KiCad (PCBNEW 4.0.7) date Mon Nov 20 20:18:14 2017*
%MOMM*%
%LPD*%
G01*
G04 APERTURE LIST*
%ADD10C,0.100000*%
%ADD11R,3.000000X2.000000*%
%ADD12R,1.400000X2.000000*%
%ADD13C,2.200000*%
%ADD14R,2.100000X1.300000*%
%ADD15R,2.000000X3.000000*%
%ADD16O,1.924000X2.924000*%
%ADD17R,1.300000X2.100000*%
%ADD18R,2.000000X3.900000*%
%ADD19R,3.900000X2.000000*%
%ADD20R,2.200000X2.200000*%
%ADD21R,1.000000X2.400000*%
%ADD22O,3.400000X4.900000*%
%ADD23R,2.000000X1.400000*%
%ADD24R,1.400000X1.900000*%
%ADD25R,1.400000X2.200000*%
%ADD26R,2.600000X2.240000*%
%ADD27C,1.900000*%
%ADD28C,1.600000*%
%ADD29C,3.498800*%
%ADD30R,1.900000X3.400000*%
%ADD31R,2.150000X0.950000*%
%ADD32R,1.900000X1.000000*%
%ADD33R,1.000000X1.900000*%
%ADD34C,1.800000*%
%ADD35C,3.900000*%
G04 APERTURE END LIST*
D10*
D11*
X38800000Y33500000D03*
X35200000Y33500000D03*
D12*
X33000000Y38000000D03*
X36000000Y38000000D03*
X31500000Y34000000D03*
X28500000Y34000000D03*
D13*
X7000000Y13380000D03*
X7000000Y16480000D03*
X7000000Y5080000D03*
D14*
X49500000Y27050000D03*
X49500000Y29950000D03*
D15*
X43000000Y29800000D03*
X43000000Y26200000D03*
D16*
X24420000Y82380000D03*
X26960000Y82380000D03*
X29500000Y82380000D03*
X32040000Y82380000D03*
X34580000Y82380000D03*
X34580000Y97620000D03*
X32040000Y97620000D03*
X29500000Y97620000D03*
X26960000Y97620000D03*
X24420000Y97620000D03*
X37420000Y82380000D03*
X39960000Y82380000D03*
X42500000Y82380000D03*
X45040000Y82380000D03*
X47580000Y82380000D03*
X47580000Y97620000D03*
X45040000Y97620000D03*
X42500000Y97620000D03*
X39960000Y97620000D03*
X37420000Y97620000D03*
D17*
X24550000Y92500000D03*
X27450000Y92500000D03*
D11*
X42300000Y38000000D03*
X38700000Y38000000D03*
D15*
X50000000Y64200000D03*
X50000000Y67800000D03*
D11*
X39300000Y15500000D03*
X35700000Y15500000D03*
X52200000Y41000000D03*
X55800000Y41000000D03*
D18*
X74500000Y46800000D03*
X74500000Y52200000D03*
D19*
X47300000Y19500000D03*
X52700000Y19500000D03*
X63200000Y19500000D03*
X57800000Y19500000D03*
D20*
X20000000Y18500000D03*
D13*
X17460000Y18500000D03*
D21*
X47255000Y44800000D03*
X45985000Y44800000D03*
X44715000Y44800000D03*
X43445000Y44800000D03*
X42175000Y44800000D03*
X40905000Y44800000D03*
X39635000Y44800000D03*
X38365000Y44800000D03*
X37095000Y44800000D03*
X35825000Y44800000D03*
X34555000Y44800000D03*
X33285000Y44800000D03*
X32015000Y44800000D03*
X30745000Y44800000D03*
X30745000Y54200000D03*
X32015000Y54200000D03*
X33285000Y54200000D03*
X34555000Y54200000D03*
X35825000Y54200000D03*
X37095000Y54200000D03*
X38365000Y54200000D03*
X39635000Y54200000D03*
X40905000Y54200000D03*
X42175000Y54200000D03*
X43445000Y54200000D03*
X44715000Y54200000D03*
X45985000Y54200000D03*
X47255000Y54200000D03*
D22*
X9500000Y98000000D03*
X14200000Y98000000D03*
X4800000Y98000000D03*
D14*
X22500000Y20050000D03*
X22500000Y22950000D03*
X40000000Y62550000D03*
X40000000Y65450000D03*
D17*
X24550000Y90000000D03*
X27450000Y90000000D03*
X24550000Y87500000D03*
X27450000Y87500000D03*
D14*
X45000000Y76550000D03*
X45000000Y79450000D03*
D17*
X37050000Y76500000D03*
X39950000Y76500000D03*
X34550000Y79000000D03*
X37450000Y79000000D03*
X24550000Y95000000D03*
X27450000Y95000000D03*
D14*
X32000000Y103450000D03*
X32000000Y100550000D03*
D17*
X24550000Y85000000D03*
X27450000Y85000000D03*
D14*
X24500000Y77050000D03*
X24500000Y79950000D03*
X28000000Y103450000D03*
X28000000Y100550000D03*
X24500000Y103450000D03*
X24500000Y100550000D03*
X64500000Y84450000D03*
X64500000Y81550000D03*
X60500000Y84450000D03*
X60500000Y81550000D03*
X57500000Y87950000D03*
X57500000Y85050000D03*
D17*
X58450000Y90000000D03*
X55550000Y90000000D03*
D14*
X58000000Y92050000D03*
X58000000Y94950000D03*
D17*
X63950000Y97500000D03*
X61050000Y97500000D03*
X66050000Y97500000D03*
X68950000Y97500000D03*
D14*
X31500000Y5050000D03*
X31500000Y7950000D03*
D17*
X28450000Y14500000D03*
X25550000Y14500000D03*
D14*
X31500000Y21550000D03*
X31500000Y24450000D03*
D17*
X31450000Y31000000D03*
X28550000Y31000000D03*
D14*
X65000000Y29550000D03*
X65000000Y32450000D03*
X71000000Y26450000D03*
X71000000Y23550000D03*
X65500000Y38950000D03*
X65500000Y36050000D03*
D17*
X67550000Y41500000D03*
X70450000Y41500000D03*
D14*
X71000000Y9950000D03*
X71000000Y7050000D03*
D17*
X46550000Y24500000D03*
X49450000Y24500000D03*
D14*
X42500000Y23450000D03*
X42500000Y20550000D03*
D12*
X41000000Y42000000D03*
X38000000Y42000000D03*
X43500000Y57000000D03*
X46500000Y57000000D03*
D23*
X31500000Y13500000D03*
X31500000Y16500000D03*
X67500000Y29500000D03*
X67500000Y32500000D03*
D12*
X52500000Y34000000D03*
X55500000Y34000000D03*
D23*
X65500000Y24500000D03*
X65500000Y27500000D03*
X47000000Y27000000D03*
X47000000Y30000000D03*
X77000000Y58500000D03*
X77000000Y61500000D03*
D12*
X68000000Y55500000D03*
X65000000Y55500000D03*
D10*
G36*
X73700000Y60292000D02*
X74300000Y59042000D01*
X71700000Y59042000D01*
X72300000Y60292000D01*
X73700000Y60292000D01*
X73700000Y60292000D01*
G37*
D24*
X74500000Y55520000D03*
D25*
X73000000Y55666500D03*
D24*
X71500000Y55520000D03*
D26*
X73000000Y58333500D03*
D10*
G36*
X72400000Y56223800D02*
X71700000Y57623800D01*
X74300000Y57623800D01*
X73600000Y56223800D01*
X72400000Y56223800D01*
X72400000Y56223800D01*
G37*
D27*
X5100000Y86000000D03*
X13900000Y86000000D03*
D28*
X12300000Y85500000D03*
X11800000Y87000000D03*
X7200000Y87000000D03*
X6700000Y85500000D03*
D23*
X11000000Y59500000D03*
X11000000Y56500000D03*
D12*
X23500000Y59500000D03*
X26500000Y59500000D03*
D23*
X55500000Y67000000D03*
X55500000Y64000000D03*
D29*
X62124720Y79276120D03*
X57148860Y82148860D03*
X54276120Y87124720D03*
X54276120Y92875280D03*
X57148860Y97851140D03*
X62124720Y100723880D03*
X67875280Y100723880D03*
X72851140Y97851140D03*
X75723880Y92875280D03*
X75723880Y87124720D03*
X72851140Y82148860D03*
X67875280Y79276120D03*
X62274580Y87274580D03*
X62274580Y92725420D03*
X67725420Y92725420D03*
X67725420Y87274580D03*
D30*
X62390000Y13080000D03*
X59850000Y13080000D03*
X57310000Y13080000D03*
X54770000Y13080000D03*
X52230000Y13080000D03*
X49690000Y13080000D03*
X47150000Y13080000D03*
X44610000Y13080000D03*
X62390000Y2920000D03*
X59850000Y2920000D03*
X57310000Y2920000D03*
X54770000Y2920000D03*
X52230000Y2920000D03*
X49690000Y2920000D03*
X47150000Y2920000D03*
X44610000Y2920000D03*
D13*
X7000000Y29880000D03*
X7000000Y32980000D03*
X7000000Y21580000D03*
X71000000Y29880000D03*
X71000000Y32980000D03*
X71000000Y21580000D03*
X71000000Y13380000D03*
X71000000Y16480000D03*
X71000000Y5080000D03*
D31*
X3800000Y64595000D03*
X3800000Y65865000D03*
X3800000Y67135000D03*
X3800000Y68405000D03*
X11200000Y68405000D03*
X11200000Y67135000D03*
X11200000Y65865000D03*
X11200000Y64595000D03*
X61200000Y30405000D03*
X61200000Y29135000D03*
X61200000Y27865000D03*
X61200000Y26595000D03*
X53800000Y26595000D03*
X53800000Y27865000D03*
X53800000Y29135000D03*
X53800000Y30405000D03*
D32*
X18300000Y62055000D03*
X18300000Y63325000D03*
X18300000Y64595000D03*
X18300000Y65865000D03*
X18300000Y67135000D03*
X18300000Y68405000D03*
X18300000Y69675000D03*
X18300000Y70945000D03*
X23700000Y70945000D03*
X23700000Y69675000D03*
X23700000Y68405000D03*
X23700000Y67135000D03*
X23700000Y65865000D03*
X23700000Y64595000D03*
X23700000Y63325000D03*
X23700000Y62055000D03*
D33*
X59055000Y71700000D03*
X60325000Y71700000D03*
X61595000Y71700000D03*
X62865000Y71700000D03*
X64135000Y71700000D03*
X65405000Y71700000D03*
X66675000Y71700000D03*
X67945000Y71700000D03*
X67945000Y66300000D03*
X66675000Y66300000D03*
X65405000Y66300000D03*
X64135000Y66300000D03*
X62865000Y66300000D03*
X61595000Y66300000D03*
X60325000Y66300000D03*
X59055000Y66300000D03*
D10*
G36*
X27343503Y38353553D02*
X25646447Y36656497D01*
X24656497Y37646447D01*
X26353553Y39343503D01*
X27343503Y38353553D01*
X27343503Y38353553D01*
G37*
G36*
X26000000Y39697056D02*
X24302944Y38000000D01*
X23312994Y38989950D01*
X25010050Y40687006D01*
X26000000Y39697056D01*
X26000000Y39697056D01*
G37*
G36*
X24621142Y36126167D02*
X19742105Y31247130D01*
X17903628Y33085607D01*
X22782665Y37964644D01*
X24621142Y36126167D01*
X24621142Y36126167D01*
G37*
D34*
X13500000Y43500000D03*
X16000000Y43500000D03*
X18500000Y43500000D03*
D35*
X11200000Y51000000D03*
X20800000Y51000000D03*
D34*
X36500000Y59500000D03*
X39000000Y59500000D03*
X41500000Y59500000D03*
D35*
X34200000Y67000000D03*
X43800000Y67000000D03*
D34*
X59500000Y43500000D03*
X62000000Y43500000D03*
X64500000Y43500000D03*
D35*
X57200000Y51000000D03*
X66800000Y51000000D03*
D27*
X29000000Y3000000D03*
X31500000Y3000000D03*
X34000000Y3000000D03*
D35*
X36400000Y10000000D03*
X26600000Y10000000D03*
D27*
X29000000Y19500000D03*
X31500000Y19500000D03*
X34000000Y19500000D03*
D35*
X36400000Y26500000D03*
X26600000Y26500000D03*
M02*
