G04 #@! TF.FileFunction,Paste,Bot*
%FSLAX46Y46*%
G04 Gerber Fmt 4.6, Leading zero omitted, Abs format (unit mm)*
G04 Created by KiCad (PCBNEW 4.0.7) date Mon Nov 20 20:18:14 2017*
%MOMM*%
%LPD*%
G01*
G04 APERTURE LIST*
%ADD10C,0.100000*%
%ADD11R,2.600000X1.600000*%
%ADD12R,1.000000X1.600000*%
%ADD13R,1.700000X0.900000*%
%ADD14R,1.600000X2.600000*%
%ADD15R,0.900000X1.700000*%
%ADD16R,1.600000X3.500000*%
%ADD17R,3.500000X1.600000*%
%ADD18R,0.600000X2.000000*%
%ADD19R,1.600000X1.000000*%
%ADD20R,1.000000X1.500000*%
%ADD21R,1.000000X1.800000*%
%ADD22R,2.200000X1.840000*%
%ADD23R,1.500000X3.000000*%
%ADD24R,1.750000X0.550000*%
%ADD25R,1.500000X0.600000*%
%ADD26R,0.600000X1.500000*%
G04 APERTURE END LIST*
D10*
D11*
X38800000Y33500000D03*
X35200000Y33500000D03*
D12*
X33000000Y38000000D03*
X36000000Y38000000D03*
X31500000Y34000000D03*
X28500000Y34000000D03*
D13*
X49500000Y27050000D03*
X49500000Y29950000D03*
D14*
X43000000Y29800000D03*
X43000000Y26200000D03*
D15*
X24550000Y92500000D03*
X27450000Y92500000D03*
D11*
X42300000Y38000000D03*
X38700000Y38000000D03*
D14*
X50000000Y64200000D03*
X50000000Y67800000D03*
D11*
X39300000Y15500000D03*
X35700000Y15500000D03*
X52200000Y41000000D03*
X55800000Y41000000D03*
D16*
X74500000Y46800000D03*
X74500000Y52200000D03*
D17*
X47300000Y19500000D03*
X52700000Y19500000D03*
X63200000Y19500000D03*
X57800000Y19500000D03*
D18*
X47255000Y44800000D03*
X45985000Y44800000D03*
X44715000Y44800000D03*
X43445000Y44800000D03*
X42175000Y44800000D03*
X40905000Y44800000D03*
X39635000Y44800000D03*
X38365000Y44800000D03*
X37095000Y44800000D03*
X35825000Y44800000D03*
X34555000Y44800000D03*
X33285000Y44800000D03*
X32015000Y44800000D03*
X30745000Y44800000D03*
X30745000Y54200000D03*
X32015000Y54200000D03*
X33285000Y54200000D03*
X34555000Y54200000D03*
X35825000Y54200000D03*
X37095000Y54200000D03*
X38365000Y54200000D03*
X39635000Y54200000D03*
X40905000Y54200000D03*
X42175000Y54200000D03*
X43445000Y54200000D03*
X44715000Y54200000D03*
X45985000Y54200000D03*
X47255000Y54200000D03*
D13*
X22500000Y20050000D03*
X22500000Y22950000D03*
X40000000Y62550000D03*
X40000000Y65450000D03*
D15*
X24550000Y90000000D03*
X27450000Y90000000D03*
X24550000Y87500000D03*
X27450000Y87500000D03*
D13*
X45000000Y76550000D03*
X45000000Y79450000D03*
D15*
X37050000Y76500000D03*
X39950000Y76500000D03*
X34550000Y79000000D03*
X37450000Y79000000D03*
X24550000Y95000000D03*
X27450000Y95000000D03*
D13*
X32000000Y103450000D03*
X32000000Y100550000D03*
D15*
X24550000Y85000000D03*
X27450000Y85000000D03*
D13*
X24500000Y77050000D03*
X24500000Y79950000D03*
X28000000Y103450000D03*
X28000000Y100550000D03*
X24500000Y103450000D03*
X24500000Y100550000D03*
X64500000Y84450000D03*
X64500000Y81550000D03*
X60500000Y84450000D03*
X60500000Y81550000D03*
X57500000Y87950000D03*
X57500000Y85050000D03*
D15*
X58450000Y90000000D03*
X55550000Y90000000D03*
D13*
X58000000Y92050000D03*
X58000000Y94950000D03*
D15*
X63950000Y97500000D03*
X61050000Y97500000D03*
X66050000Y97500000D03*
X68950000Y97500000D03*
D13*
X31500000Y5050000D03*
X31500000Y7950000D03*
D15*
X28450000Y14500000D03*
X25550000Y14500000D03*
D13*
X31500000Y21550000D03*
X31500000Y24450000D03*
D15*
X31450000Y31000000D03*
X28550000Y31000000D03*
D13*
X65000000Y29550000D03*
X65000000Y32450000D03*
X71000000Y26450000D03*
X71000000Y23550000D03*
X65500000Y38950000D03*
X65500000Y36050000D03*
D15*
X67550000Y41500000D03*
X70450000Y41500000D03*
D13*
X71000000Y9950000D03*
X71000000Y7050000D03*
D15*
X46550000Y24500000D03*
X49450000Y24500000D03*
D13*
X42500000Y23450000D03*
X42500000Y20550000D03*
D12*
X41000000Y42000000D03*
X38000000Y42000000D03*
X43500000Y57000000D03*
X46500000Y57000000D03*
D19*
X31500000Y13500000D03*
X31500000Y16500000D03*
X67500000Y29500000D03*
X67500000Y32500000D03*
D12*
X52500000Y34000000D03*
X55500000Y34000000D03*
D19*
X65500000Y24500000D03*
X65500000Y27500000D03*
X47000000Y27000000D03*
X47000000Y30000000D03*
X77000000Y58500000D03*
X77000000Y61500000D03*
D12*
X68000000Y55500000D03*
X65000000Y55500000D03*
D10*
G36*
X73500000Y60092000D02*
X74100000Y59242000D01*
X71900000Y59242000D01*
X72500000Y60092000D01*
X73500000Y60092000D01*
X73500000Y60092000D01*
G37*
D20*
X74500000Y55520000D03*
D21*
X73000000Y55666500D03*
D20*
X71500000Y55520000D03*
D22*
X73000000Y58333500D03*
D10*
G36*
X72600000Y56423800D02*
X71900000Y57423800D01*
X74100000Y57423800D01*
X73400000Y56423800D01*
X72600000Y56423800D01*
X72600000Y56423800D01*
G37*
D19*
X11000000Y59500000D03*
X11000000Y56500000D03*
D12*
X23500000Y59500000D03*
X26500000Y59500000D03*
D19*
X55500000Y67000000D03*
X55500000Y64000000D03*
D23*
X62390000Y13080000D03*
X59850000Y13080000D03*
X57310000Y13080000D03*
X54770000Y13080000D03*
X52230000Y13080000D03*
X49690000Y13080000D03*
X47150000Y13080000D03*
X44610000Y13080000D03*
X62390000Y2920000D03*
X59850000Y2920000D03*
X57310000Y2920000D03*
X54770000Y2920000D03*
X52230000Y2920000D03*
X49690000Y2920000D03*
X47150000Y2920000D03*
X44610000Y2920000D03*
D24*
X3800000Y64595000D03*
X3800000Y65865000D03*
X3800000Y67135000D03*
X3800000Y68405000D03*
X11200000Y68405000D03*
X11200000Y67135000D03*
X11200000Y65865000D03*
X11200000Y64595000D03*
X61200000Y30405000D03*
X61200000Y29135000D03*
X61200000Y27865000D03*
X61200000Y26595000D03*
X53800000Y26595000D03*
X53800000Y27865000D03*
X53800000Y29135000D03*
X53800000Y30405000D03*
D25*
X18300000Y62055000D03*
X18300000Y63325000D03*
X18300000Y64595000D03*
X18300000Y65865000D03*
X18300000Y67135000D03*
X18300000Y68405000D03*
X18300000Y69675000D03*
X18300000Y70945000D03*
X23700000Y70945000D03*
X23700000Y69675000D03*
X23700000Y68405000D03*
X23700000Y67135000D03*
X23700000Y65865000D03*
X23700000Y64595000D03*
X23700000Y63325000D03*
X23700000Y62055000D03*
D26*
X59055000Y71700000D03*
X60325000Y71700000D03*
X61595000Y71700000D03*
X62865000Y71700000D03*
X64135000Y71700000D03*
X65405000Y71700000D03*
X66675000Y71700000D03*
X67945000Y71700000D03*
X67945000Y66300000D03*
X66675000Y66300000D03*
X65405000Y66300000D03*
X64135000Y66300000D03*
X62865000Y66300000D03*
X61595000Y66300000D03*
X60325000Y66300000D03*
X59055000Y66300000D03*
D10*
G36*
X27060660Y38353553D02*
X25646447Y36939340D01*
X24939340Y37646447D01*
X26353553Y39060660D01*
X27060660Y38353553D01*
X27060660Y38353553D01*
G37*
G36*
X25717157Y39697056D02*
X24302944Y38282843D01*
X23595837Y38989950D01*
X25010050Y40404163D01*
X25717157Y39697056D01*
X25717157Y39697056D01*
G37*
G36*
X24338299Y36126167D02*
X19742105Y31529973D01*
X18186471Y33085607D01*
X22782665Y37681801D01*
X24338299Y36126167D01*
X24338299Y36126167D01*
G37*
M02*
